<svg xmlns="http://www.w3.org/2000/svg" width="20" height="20" viewBox="0 0 20 20">
  <g fill="none" fill-rule="evenodd">
    <path d="M11.8 5.1 5.4 11.5a1 1 0 0 0 0 1.4l1.7 1.7a1 1 0 0 0 1.4 0l6.4-6.4a1 1 0 0 0 0-1.4l-1.7-1.7a1 1 0 0 0-1.4 0z" fill="#4C97FF" stroke="#3373CC" stroke-width="1"/>
    <path d="M10.6 6.3 13.7 9.4" stroke="#FFF" stroke-width="1" stroke-linecap="round"/>
    <path d="M4.5 3.5v3M3 5h3M14.5 12.5v3M13 14h3M16.5 2.5v2M15.5 3.5h2" stroke="#575E75" stroke-width="1.2" stroke-linecap="round"/>
  </g>
</svg>
